<svg height="42" viewBox="0 0 42 42" width="42" xmlns="http://www.w3.org/2000/svg"><path d="m21 42c-11.59797975 0-21-9.4020203-21-21 0-11.59797975 9.40202025-21 21-21 11.5979797 0 21 9.40202025 21 21 0 11.5979797-9.4020203 21-21 21zm9.6879979-27.1059511c-.7243921.3212559-1.502795.5384512-2.3199417.6360306.833998-.4998515 1.4744935-1.291505 1.7760175-2.2346767-.7804193.4629081-1.6448073.798999-2.5649345.980187-.7367786-.7850282-1.7865315-1.2755898-2.9482667-1.2755898-2.2308599 0-4.0393558 1.8085679-4.0393558 4.0391398 0 .316647.0357191.6248683.1045648.9204872-3.356948-.1684416-6.3332283-1.7765216-8.3254327-4.2202559-.3476852.5965668-.5468769 1.2904248-.5468769 2.0306601 0 1.4013269.7130859 2.6376689 1.7969016 3.3620611-.6620997-.0209562-1.2849517-.2027204-1.8295241-.5052526-.000288.0168514-.00036.0337748-.00036.0507701 0 1.9570615 1.392325 3.5896264 3.2401408 3.9607162-.3389715.0922504-.6958025.1415802-1.0641558.1415802-.2603318 0-.5133182-.025277-.7599672-.0724464.5140382 1.6047673 2.0057431 2.7725517 3.7732628 2.8052462-1.3824591 1.0833116-3.1240537 1.7289921-5.0165183 1.7289921-.3260088 0-.6475528-.0190838-.9635517-.0563872 1.7876117 1.146036 3.9107382 1.8146891 6.1917922 1.8146891 7.4296465 0 11.492407-6.1547768 11.492407-11.492479 0-.1751389-.0039608-.3493415-.0116664-.522536.7891331-.5694893 1.4739173-1.2809189 2.0154651-2.0909361z" fill="#f39a1e" fill-rule="evenodd"/></svg>