<svg height="42" viewBox="0 0 42 42" width="42" xmlns="http://www.w3.org/2000/svg"><path d="m21 42c-11.59797975 0-21-9.4020203-21-21 0-11.59797975 9.40202025-21 21-21 11.5979797 0 21 9.40202025 21 21 0 11.5979797-9.4020203 21-21 21zm-8.0065719-30c-.5487122 0-.9934281.4447159-.9934281.9934281v16.0131438c0 .5486448.4447159.9934955.9934281.9934955h8.6209731v-6.9705875h-2.3457852v-2.7165841h2.3457852v-2.0033797c0-2.324878 1.4199345-3.5908413 3.4939265-3.5908413.9934955 0 1.8473176.073917 2.096113.1069638v2.4296837l-1.4384137.0006745c-1.1279085 0-1.3463548.5359656-1.3463548 1.32248v1.734419h2.6900792l-.3502289 2.7165841h-2.3398503v6.9705875h4.5868997c.5486448 0 .9934281-.4448507.9934281-.9934955v-16.0131438c0-.5487122-.4447833-.9934281-.9934281-.9934281z" fill="#f39a1e" fill-rule="evenodd"/></svg>