<svg height="42" viewBox="0 0 42 42" width="42" xmlns="http://www.w3.org/2000/svg"><path d="m21 42c-11.59797975 0-21-9.4020203-21-21 0-11.59797975 9.40202025-21 21-21 11.5979797 0 21 9.40202025 21 21 0 11.5979797-9.4020203 21-21 21zm9.0328927-12v-6.5939347c0-3.2381804-.6991446-5.7275272-4.4818041-5.7275272-1.8181959 0-3.0380248.9965785-3.5363141 1.9420684h-.0510887v-1.6439346h-3.581804v12.0233281h3.7322706v-5.9465785c0-1.5683515.2960342-3.0884137 2.240902-3.0884137 1.9175739 0 1.9420685 1.7937014 1.9420685 3.1884914v5.8465008zm-15.8647745-13.6658631c1.1953344 0 2.1660187-.9706843 2.1660187-2.1674184 0-1.1960342-.9706843-2.1667185-2.1660187-2.1667185-1.2002333 0-2.1681182.9706843-2.1681182 2.1667185 0 1.1967341.9678849 2.1674184 2.1681182 2.1674184zm-1.8706843 13.6658631h3.7399689v-12.0233281h-3.7399689z" fill="#f39a1e" fill-rule="evenodd"/></svg>