<svg height="42" viewBox="0 0 42 42" width="42" xmlns="http://www.w3.org/2000/svg"><path d="m21 42c-11.59797975 0-21-9.4020203-21-21 0-11.59797975 9.40202025-21 21-21 11.5979797 0 21 9.40202025 21 21 0 11.5979797-9.4020203 21-21 21zm-1.9752333-18.0492593v-6.3917775l6.1467966 3.2070242zm13.4967394-7.4990695s-.2222868-1.5676335-.9043363-2.2579678c-.8650502-.9060734-1.8346851-.9105499-2.2793479-.9635994-3.1833502-.230104-7.9585426-.230104-7.9585426-.230104h-.0098883s-4.775081 0-7.9585425.230104c-.4446851.0530495-1.4139637.057526-2.279348.9635994-.6820494.6903343-.9040022 2.2579678-.9040022 2.2579678s-.2274983 1.8408988-.2274983 3.6818198v1.7258467c0 1.8408765.2274983 3.6817753.2274983 3.6817753s.2219528 1.5676558.9040022 2.25799c.8653843.9060512 2.002074.8774107 2.5083607.9723742 1.8199417.1745156 7.7344962.2285228 7.7344962.2285228s4.7801143-.0071935 7.9634645-.2373198c.4446628-.0530273 1.4142977-.057526 2.2793479-.9635772.6820495-.6903342.9043363-2.25799.9043363-2.25799s.2271865-1.8408988.2271865-3.6817753v-1.7258467c0-1.840921-.2271865-3.6818198-.2271865-3.6818198z" fill="#f39a1e" fill-rule="evenodd"/></svg>